<svg xmlns="http://www.w3.org/2000/svg" version="1.1" xmlns:xlink="http://www.w3.org/1999/xlink" width="1000" height="1000"><g clip-path="url(#SvgjsClipPath1144)"><rect width="1000" height="1000" fill="#ffffff"></rect><g transform="matrix(15.625,0,0,15.625,0,0)"><svg xmlns="http://www.w3.org/2000/svg" version="1.1" xmlns:xlink="http://www.w3.org/1999/xlink" width="64" height="64"><svg xmlns="http://www.w3.org/2000/svg" viewBox="0 0 64 64" width="64" height="64">
  <defs>
    <!-- Blue gradient similar to the reference image -->
    <linearGradient id="walletGradient" x1="0%" y1="0%" x2="100%" y2="100%">
      <stop offset="0%" style="stop-color:#4F7EFF;stop-opacity:1"></stop>
      <stop offset="100%" style="stop-color:#3B5FE8;stop-opacity:1"></stop>
    </linearGradient>
    
    <!-- Shadow for depth -->
    <filter id="shadow" x="-20%" y="-20%" width="140%" height="140%">
      <feDropShadow dx="0" dy="2" stdDeviation="3" flood-color="#000000" flood-opacity="0.15"></feDropShadow>
    </filter>
  <clipPath id="SvgjsClipPath1144"><rect width="1000" height="1000" x="0" y="0" rx="500" ry="500"></rect></clipPath></defs>
  
  <!-- Main wallet container with rounded corners -->
  <rect x="8" y="8" width="48" height="48" rx="12" ry="12" fill="url(#walletGradient)" filter="url(#shadow)"></rect>
  
  <!-- Card/wallet symbol inside -->
  <g transform="translate(32, 32)">
    <!-- Main card body -->
    <rect x="-12" y="-8" width="24" height="16" rx="3" ry="3" fill="#ffffff" opacity="0.9"></rect>
    
    <!-- Card details/lines -->
    <rect x="-10" y="-5" width="8" height="1.5" rx="0.75" fill="#3B5FE8" opacity="0.6"></rect>
    <rect x="-10" y="-2" width="12" height="1" rx="0.5" fill="#3B5FE8" opacity="0.4"></rect>
    <rect x="-10" y="0" width="6" height="1" rx="0.5" fill="#3B5FE8" opacity="0.4"></rect>
    
    <!-- Small chip/security element -->
    <rect x="6" y="-6" width="4" height="3" rx="1" fill="#FFD700" opacity="0.8"></rect>
  </g>
</svg></svg></g></g></svg>